<svg width="36" height="36" viewBox="0 0 36 36" fill="none" xmlns="http://www.w3.org/2000/svg">
<path d="M28.3963 8.46192C26.4842 7.58457 24.4337 6.93818 22.2899 6.56796C22.2508 6.56081 22.2118 6.57867 22.1917 6.61438C21.928 7.0834 21.6359 7.69527 21.4314 8.1762C19.1255 7.83099 16.8315 7.83099 14.5729 8.1762C14.3683 7.68458 14.0656 7.0834 13.8007 6.61438C13.7806 6.57986 13.7416 6.56201 13.7026 6.56796C11.5599 6.93699 9.50945 7.58339 7.59617 8.46192C7.57961 8.46906 7.56541 8.48098 7.55599 8.49644C3.66674 14.3069 2.60131 19.9745 3.12398 25.5719C3.12634 25.5993 3.14171 25.6255 3.163 25.6421C5.72901 27.5265 8.21463 28.6706 10.6541 29.4288C10.6931 29.4408 10.7345 29.4265 10.7594 29.3943C11.3364 28.6063 11.8508 27.7754 12.2918 26.9016C12.3179 26.8504 12.293 26.7897 12.2398 26.7694C11.4239 26.4599 10.647 26.0826 9.89966 25.654C9.84055 25.6195 9.83582 25.535 9.8902 25.4945C10.0475 25.3766 10.2048 25.254 10.3549 25.1302C10.3821 25.1076 10.42 25.1028 10.4519 25.1171C15.3616 27.3587 20.6769 27.3587 25.5287 25.1171C25.5606 25.1017 25.5985 25.1064 25.6268 25.129C25.7771 25.2528 25.9343 25.3766 26.0928 25.4945C26.1472 25.535 26.1436 25.6195 26.0845 25.654C25.3372 26.0909 24.5602 26.4599 23.7431 26.7683C23.6899 26.7885 23.6663 26.8504 23.6923 26.9016C24.1428 27.7741 24.6572 28.6051 25.2236 29.3931C25.2473 29.4265 25.2898 29.4408 25.3289 29.4288C27.7802 28.6706 30.2658 27.5265 32.8318 25.6421C32.8543 25.6255 32.8685 25.6005 32.8708 25.5731C33.4964 19.1019 31.8231 13.4808 28.4353 8.49763C28.427 8.48098 28.4128 8.46906 28.3963 8.46192ZM13.025 22.1637C11.5469 22.1637 10.3289 20.8066 10.3289 19.14C10.3289 17.4734 11.5233 16.1164 13.025 16.1164C14.5386 16.1164 15.7448 17.4853 15.7211 19.14C15.7211 20.8066 14.5268 22.1637 13.025 22.1637ZM22.9934 22.1637C21.5153 22.1637 20.2974 20.8066 20.2974 19.14C20.2974 17.4734 21.4917 16.1164 22.9934 16.1164C24.507 16.1164 25.7132 17.4853 25.6896 19.14C25.6896 20.8066 24.507 22.1637 22.9934 22.1637Z" fill="white"/>
</svg>
