<svg width="36" height="36" viewBox="0 0 36 36" fill="none" xmlns="http://www.w3.org/2000/svg">
<path d="M29.9287 11.8811C29.947 12.1455 29.947 12.41 29.947 12.6769C29.947 20.8098 23.7556 30.1894 12.4345 30.1894V30.1845C9.09019 30.1894 5.81536 29.2315 3 27.4252C3.48629 27.4838 3.97502 27.513 4.46496 27.5142C7.23644 27.5167 9.9287 26.5867 12.1091 24.8744C9.47532 24.8244 7.16575 23.1072 6.35893 20.6001C7.28154 20.7781 8.23218 20.7415 9.13772 20.4941C6.2663 19.914 4.20049 17.3911 4.20049 14.4612C4.20049 14.4344 4.20049 14.4088 4.20049 14.3832C5.05606 14.8597 6.01402 15.1242 6.99391 15.1535C4.28946 13.346 3.45582 9.74822 5.08897 6.93531C8.21389 10.7805 12.8245 13.1181 17.7739 13.3655C17.2779 11.2278 17.9555 8.98771 19.5545 7.48497C22.0335 5.15468 25.9324 5.27412 28.2626 7.75188C29.6411 7.4801 30.9622 6.97431 32.1712 6.25767C31.7118 7.68241 30.7502 8.89265 29.4656 9.66169C30.6856 9.51788 31.8775 9.19125 33 8.69277C32.1737 9.93104 31.1328 11.0097 29.9287 11.8811Z" fill="white"/>
</svg>
