<svg width="36" height="36" viewBox="0 0 36 36" fill="none" xmlns="http://www.w3.org/2000/svg">
<path fill-rule="evenodd" clip-rule="evenodd" d="M29.6881 8.12176C30.9782 8.46835 31.9987 9.4889 32.3453 10.779C32.9807 13.1282 33 17.9998 33 17.9998C33 17.9998 33 22.8907 32.3646 25.2206C32.018 26.5107 30.9974 27.5313 29.7073 27.8779C27.3774 28.5133 18 28.5133 18 28.5133C18 28.5133 8.62259 28.5133 6.29268 27.8779C5.00257 27.5313 3.98203 26.5107 3.63543 25.2206C3 22.8714 3 17.9998 3 17.9998C3 17.9998 3 13.1282 3.61617 10.7983C3.96277 9.50815 4.98331 8.48761 6.27343 8.14102C8.60334 7.50558 17.9807 7.48633 17.9807 7.48633C17.9807 7.48633 27.3582 7.48633 29.6881 8.12176ZM22.7754 17.9998L14.9961 22.5056V13.494L22.7754 17.9998Z" fill="white"/>
</svg>
